<?xml version="1.0" encoding="UTF-8"?>
<svg xmlns="http://www.w3.org/2000/svg" width="24in" height="18in" viewBox="0 0 2400 1800">
  <defs>
    <filter id="ds"><feDropShadow dx="1" dy="1" stdDeviation="2" flood-opacity="0.4"/></filter>
  </defs>
  <rect width="2400" height="1800" fill="#f4e8c8"/>
  <rect x="15" y="15" width="2370" height="1770" fill="none" stroke="#7a5a20" stroke-width="8" rx="6"/>
  <rect x="25" y="25" width="2350" height="1750" fill="none" stroke="#c8a860" stroke-width="2" rx="4"/>
  <text x="1200" y="90" text-anchor="middle" font-family="Georgia,serif" font-size="70" font-weight="bold" fill="#2a1508" letter-spacing="6">RINGSTOWN</text>
  <text x="1200" y="130" text-anchor="middle" font-family="Georgia,serif" font-size="24" font-style="italic" fill="#5a3818">Frontier Town · Shield Lands · The Twisted Thicket</text>
  <line x1="80" y1="150" x2="2320" y2="150" stroke="#7a5a20" stroke-width="2"/>
  <polygon points="142.0,981.0 88.3,1012.0 34.6,981.0 34.6,919.0 88.3,888.0 142.0,919.0" fill="#2a5520" stroke="#1a3010" stroke-width="1.0"/>
  <polygon points="195.7,1074.0 142.0,1105.0 88.3,1074.0 88.3,1012.0 142.0,981.0 195.7,1012.0" fill="#2a5520" stroke="#1a3010" stroke-width="1.0"/>
  <polygon points="249.4,1167.0 195.7,1198.0 142.0,1167.0 142.0,1105.0 195.7,1074.0 249.4,1105.0" fill="#2a5520" stroke="#1a3010" stroke-width="1.0"/>
  <polygon points="303.1,1260.0 249.4,1291.0 195.7,1260.0 195.7,1198.0 249.4,1167.0 303.1,1198.0" fill="#2a5520" stroke="#1a3010" stroke-width="1.0"/>
  <polygon points="356.8,1353.0 303.1,1384.0 249.4,1353.0 249.4,1291.0 303.1,1260.0 356.8,1291.0" fill="#2a5520" stroke="#1a3010" stroke-width="1.0"/>
  <polygon points="410.5,1446.0 356.8,1477.0 303.1,1446.0 303.1,1384.0 356.8,1353.0 410.5,1384.0" fill="#2a5520" stroke="#1a3010" stroke-width="1.0"/>
  <polygon points="464.1,1539.0 410.5,1570.0 356.8,1539.0 356.8,1477.0 410.5,1446.0 464.1,1477.0" fill="#2a5520" stroke="#1a3010" stroke-width="1.0"/>
  <polygon points="517.8,1632.0 464.1,1663.0 410.5,1632.0 410.5,1570.0 464.1,1539.0 517.8,1570.0" fill="#2a5520" stroke="#1a3010" stroke-width="1.0"/>
  <polygon points="195.7,888.0 142.0,919.0 88.3,888.0 88.3,826.0 142.0,795.0 195.7,826.0" fill="#2a5520" stroke="#1a3010" stroke-width="1.0"/>
  <polygon points="625.2,1632.0 571.5,1663.0 517.8,1632.0 517.8,1570.0 571.5,1539.0 625.2,1570.0" fill="#2a5520" stroke="#1a3010" stroke-width="1.0"/>
  <polygon points="249.4,795.0 195.7,826.0 142.0,795.0 142.0,733.0 195.7,702.0 249.4,733.0" fill="#2a5520" stroke="#1a3010" stroke-width="1.0"/>
  <polygon points="732.6,1632.0 678.9,1663.0 625.2,1632.0 625.2,1570.0 678.9,1539.0 732.6,1570.0" fill="#2a5520" stroke="#1a3010" stroke-width="1.0"/>
  <polygon points="303.1,702.0 249.4,733.0 195.7,702.0 195.7,640.0 249.4,609.0 303.1,640.0" fill="#2a5520" stroke="#1a3010" stroke-width="1.0"/>
  <polygon points="840.0,1632.0 786.3,1663.0 732.6,1632.0 732.6,1570.0 786.3,1539.0 840.0,1570.0" fill="#2a5520" stroke="#1a3010" stroke-width="1.0"/>
  <polygon points="356.8,609.0 303.1,640.0 249.4,609.0 249.4,547.0 303.1,516.0 356.8,547.0" fill="#2a5520" stroke="#1a3010" stroke-width="1.0"/>
  <polygon points="947.4,1632.0 893.7,1663.0 840.0,1632.0 840.0,1570.0 893.7,1539.0 947.4,1570.0" fill="#2a5520" stroke="#1a3010" stroke-width="1.0"/>
  <polygon points="410.5,516.0 356.8,547.0 303.1,516.0 303.1,454.0 356.8,423.0 410.5,454.0" fill="#2a5520" stroke="#1a3010" stroke-width="1.0"/>
  <polygon points="1054.8,1632.0 1001.1,1663.0 947.4,1632.0 947.4,1570.0 1001.1,1539.0 1054.8,1570.0" fill="#2a5520" stroke="#1a3010" stroke-width="1.0"/>
  <polygon points="464.1,423.0 410.5,454.0 356.8,423.0 356.8,361.0 410.5,330.0 464.1,361.0" fill="#2a5520" stroke="#1a3010" stroke-width="1.0"/>
  <polygon points="1162.2,1632.0 1108.5,1663.0 1054.8,1632.0 1054.8,1570.0 1108.5,1539.0 1162.2,1570.0" fill="#2a5520" stroke="#1a3010" stroke-width="1.0"/>
  <polygon points="517.8,330.0 464.1,361.0 410.5,330.0 410.5,268.0 464.1,237.0 517.8,268.0" fill="#2a5520" stroke="#1a3010" stroke-width="1.0"/>
  <polygon points="1269.5,1632.0 1215.9,1663.0 1162.2,1632.0 1162.2,1570.0 1215.9,1539.0 1269.5,1570.0" fill="#2a5520" stroke="#1a3010" stroke-width="1.0"/>
  <polygon points="625.2,330.0 571.5,361.0 517.8,330.0 517.8,268.0 571.5,237.0 625.2,268.0" fill="#2a5520" stroke="#1a3010" stroke-width="1.0"/>
  <polygon points="1323.2,1539.0 1269.5,1570.0 1215.9,1539.0 1215.9,1477.0 1269.5,1446.0 1323.2,1477.0" fill="#2a5520" stroke="#1a3010" stroke-width="1.0"/>
  <polygon points="732.6,330.0 678.9,361.0 625.2,330.0 625.2,268.0 678.9,237.0 732.6,268.0" fill="#2a5520" stroke="#1a3010" stroke-width="1.0"/>
  <polygon points="1376.9,1446.0 1323.2,1477.0 1269.5,1446.0 1269.5,1384.0 1323.2,1353.0 1376.9,1384.0" fill="#2a5520" stroke="#1a3010" stroke-width="1.0"/>
  <polygon points="840.0,330.0 786.3,361.0 732.6,330.0 732.6,268.0 786.3,237.0 840.0,268.0" fill="#2a5520" stroke="#1a3010" stroke-width="1.0"/>
  <polygon points="1430.6,1353.0 1376.9,1384.0 1323.2,1353.0 1323.2,1291.0 1376.9,1260.0 1430.6,1291.0" fill="#2a5520" stroke="#1a3010" stroke-width="1.0"/>
  <polygon points="947.4,330.0 893.7,361.0 840.0,330.0 840.0,268.0 893.7,237.0 947.4,268.0" fill="#2a5520" stroke="#1a3010" stroke-width="1.0"/>
  <polygon points="1484.3,1260.0 1430.6,1291.0 1376.9,1260.0 1376.9,1198.0 1430.6,1167.0 1484.3,1198.0" fill="#2a5520" stroke="#1a3010" stroke-width="1.0"/>
  <polygon points="1054.8,330.0 1001.1,361.0 947.4,330.0 947.4,268.0 1001.1,237.0 1054.8,268.0" fill="#2a5520" stroke="#1a3010" stroke-width="1.0"/>
  <polygon points="1538.0,1167.0 1484.3,1198.0 1430.6,1167.0 1430.6,1105.0 1484.3,1074.0 1538.0,1105.0" fill="#2a5520" stroke="#1a3010" stroke-width="1.0"/>
  <polygon points="1162.2,330.0 1108.5,361.0 1054.8,330.0 1054.8,268.0 1108.5,237.0 1162.2,268.0" fill="#2a5520" stroke="#1a3010" stroke-width="1.0"/>
  <polygon points="1591.7,1074.0 1538.0,1105.0 1484.3,1074.0 1484.3,1012.0 1538.0,981.0 1591.7,1012.0" fill="#2a5520" stroke="#1a3010" stroke-width="1.0"/>
  <polygon points="1269.5,330.0 1215.9,361.0 1162.2,330.0 1162.2,268.0 1215.9,237.0 1269.5,268.0" fill="#2a5520" stroke="#1a3010" stroke-width="1.0"/>
  <polygon points="1323.2,423.0 1269.5,454.0 1215.9,423.0 1215.9,361.0 1269.5,330.0 1323.2,361.0" fill="#2a5520" stroke="#1a3010" stroke-width="1.0"/>
  <polygon points="1376.9,516.0 1323.2,547.0 1269.5,516.0 1269.5,454.0 1323.2,423.0 1376.9,454.0" fill="#2a5520" stroke="#1a3010" stroke-width="1.0"/>
  <polygon points="1430.6,609.0 1376.9,640.0 1323.2,609.0 1323.2,547.0 1376.9,516.0 1430.6,547.0" fill="#2a5520" stroke="#1a3010" stroke-width="1.0"/>
  <polygon points="1484.3,702.0 1430.6,733.0 1376.9,702.0 1376.9,640.0 1430.6,609.0 1484.3,640.0" fill="#2a5520" stroke="#1a3010" stroke-width="1.0"/>
  <polygon points="1538.0,795.0 1484.3,826.0 1430.6,795.0 1430.6,733.0 1484.3,702.0 1538.0,733.0" fill="#2a5520" stroke="#1a3010" stroke-width="1.0"/>
  <polygon points="1591.7,888.0 1538.0,919.0 1484.3,888.0 1484.3,826.0 1538.0,795.0 1591.7,826.0" fill="#2a5520" stroke="#1a3010" stroke-width="1.0"/>
  <polygon points="1645.4,981.0 1591.7,1012.0 1538.0,981.0 1538.0,919.0 1591.7,888.0 1645.4,919.0" fill="#2a5520" stroke="#1a3010" stroke-width="1.0"/>
  <polygon points="249.4,981.0 195.7,1012.0 142.0,981.0 142.0,919.0 195.7,888.0 249.4,919.0" fill="#4a7235" stroke="#1a3010" stroke-width="1.0"/>
  <polygon points="303.1,1074.0 249.4,1105.0 195.7,1074.0 195.7,1012.0 249.4,981.0 303.1,1012.0" fill="#4a7235" stroke="#1a3010" stroke-width="1.0"/>
  <polygon points="356.8,1167.0 303.1,1198.0 249.4,1167.0 249.4,1105.0 303.1,1074.0 356.8,1105.0" fill="#4a7235" stroke="#1a3010" stroke-width="1.0"/>
  <polygon points="410.5,1260.0 356.8,1291.0 303.1,1260.0 303.1,1198.0 356.8,1167.0 410.5,1198.0" fill="#4a7235" stroke="#1a3010" stroke-width="1.0"/>
  <polygon points="464.1,1353.0 410.5,1384.0 356.8,1353.0 356.8,1291.0 410.5,1260.0 464.1,1291.0" fill="#4a7235" stroke="#1a3010" stroke-width="1.0"/>
  <polygon points="517.8,1446.0 464.1,1477.0 410.5,1446.0 410.5,1384.0 464.1,1353.0 517.8,1384.0" fill="#4a7235" stroke="#1a3010" stroke-width="1.0"/>
  <polygon points="571.5,1539.0 517.8,1570.0 464.1,1539.0 464.1,1477.0 517.8,1446.0 571.5,1477.0" fill="#4a7235" stroke="#1a3010" stroke-width="1.0"/>
  <polygon points="303.1,888.0 249.4,919.0 195.7,888.0 195.7,826.0 249.4,795.0 303.1,826.0" fill="#4a7235" stroke="#1a3010" stroke-width="1.0"/>
  <polygon points="678.9,1539.0 625.2,1570.0 571.5,1539.0 571.5,1477.0 625.2,1446.0 678.9,1477.0" fill="#4a7235" stroke="#1a3010" stroke-width="1.0"/>
  <polygon points="356.8,795.0 303.1,826.0 249.4,795.0 249.4,733.0 303.1,702.0 356.8,733.0" fill="#4a7235" stroke="#1a3010" stroke-width="1.0"/>
  <polygon points="786.3,1539.0 732.6,1570.0 678.9,1539.0 678.9,1477.0 732.6,1446.0 786.3,1477.0" fill="#4a7235" stroke="#1a3010" stroke-width="1.0"/>
  <polygon points="410.5,702.0 356.8,733.0 303.1,702.0 303.1,640.0 356.8,609.0 410.5,640.0" fill="#4a7235" stroke="#1a3010" stroke-width="1.0"/>
  <polygon points="893.7,1539.0 840.0,1570.0 786.3,1539.0 786.3,1477.0 840.0,1446.0 893.7,1477.0" fill="#4a7235" stroke="#1a3010" stroke-width="1.0"/>
  <polygon points="464.1,609.0 410.5,640.0 356.8,609.0 356.8,547.0 410.5,516.0 464.1,547.0" fill="#4a7235" stroke="#1a3010" stroke-width="1.0"/>
  <polygon points="1001.1,1539.0 947.4,1570.0 893.7,1539.0 893.7,1477.0 947.4,1446.0 1001.1,1477.0" fill="#4a7235" stroke="#1a3010" stroke-width="1.0"/>
  <polygon points="517.8,516.0 464.1,547.0 410.5,516.0 410.5,454.0 464.1,423.0 517.8,454.0" fill="#4a7235" stroke="#1a3010" stroke-width="1.0"/>
  <polygon points="1108.5,1539.0 1054.8,1570.0 1001.1,1539.0 1001.1,1477.0 1054.8,1446.0 1108.5,1477.0" fill="#4a7235" stroke="#1a3010" stroke-width="1.0"/>
  <polygon points="571.5,423.0 517.8,454.0 464.1,423.0 464.1,361.0 517.8,330.0 571.5,361.0" fill="#4a7235" stroke="#1a3010" stroke-width="1.0"/>
  <polygon points="1215.9,1539.0 1162.2,1570.0 1108.5,1539.0 1108.5,1477.0 1162.2,1446.0 1215.9,1477.0" fill="#4a7235" stroke="#1a3010" stroke-width="1.0"/>
  <polygon points="678.9,423.0 625.2,454.0 571.5,423.0 571.5,361.0 625.2,330.0 678.9,361.0" fill="#4a7235" stroke="#1a3010" stroke-width="1.0"/>
  <polygon points="1269.5,1446.0 1215.9,1477.0 1162.2,1446.0 1162.2,1384.0 1215.9,1353.0 1269.5,1384.0" fill="#4a7235" stroke="#1a3010" stroke-width="1.0"/>
  <polygon points="786.3,423.0 732.6,454.0 678.9,423.0 678.9,361.0 732.6,330.0 786.3,361.0" fill="#4a7235" stroke="#1a3010" stroke-width="1.0"/>
  <polygon points="1323.2,1353.0 1269.5,1384.0 1215.9,1353.0 1215.9,1291.0 1269.5,1260.0 1323.2,1291.0" fill="#4a7235" stroke="#1a3010" stroke-width="1.0"/>
  <polygon points="893.7,423.0 840.0,454.0 786.3,423.0 786.3,361.0 840.0,330.0 893.7,361.0" fill="#4a7235" stroke="#1a3010" stroke-width="1.0"/>
  <polygon points="1376.9,1260.0 1323.2,1291.0 1269.5,1260.0 1269.5,1198.0 1323.2,1167.0 1376.9,1198.0" fill="#4a7235" stroke="#1a3010" stroke-width="1.0"/>
  <polygon points="1001.1,423.0 947.4,454.0 893.7,423.0 893.7,361.0 947.4,330.0 1001.1,361.0" fill="#4a7235" stroke="#1a3010" stroke-width="1.0"/>
  <polygon points="1430.6,1167.0 1376.9,1198.0 1323.2,1167.0 1323.2,1105.0 1376.9,1074.0 1430.6,1105.0" fill="#4a7235" stroke="#1a3010" stroke-width="1.0"/>
  <polygon points="1108.5,423.0 1054.8,454.0 1001.1,423.0 1001.1,361.0 1054.8,330.0 1108.5,361.0" fill="#4a7235" stroke="#1a3010" stroke-width="1.0"/>
  <polygon points="1484.3,1074.0 1430.6,1105.0 1376.9,1074.0 1376.9,1012.0 1430.6,981.0 1484.3,1012.0" fill="#4a7235" stroke="#1a3010" stroke-width="1.0"/>
  <polygon points="1215.9,423.0 1162.2,454.0 1108.5,423.0 1108.5,361.0 1162.2,330.0 1215.9,361.0" fill="#4a7235" stroke="#1a3010" stroke-width="1.0"/>
  <polygon points="1269.5,516.0 1215.9,547.0 1162.2,516.0 1162.2,454.0 1215.9,423.0 1269.5,454.0" fill="#4a7235" stroke="#1a3010" stroke-width="1.0"/>
  <polygon points="1323.2,609.0 1269.5,640.0 1215.9,609.0 1215.9,547.0 1269.5,516.0 1323.2,547.0" fill="#4a7235" stroke="#1a3010" stroke-width="1.0"/>
  <polygon points="1376.9,702.0 1323.2,733.0 1269.5,702.0 1269.5,640.0 1323.2,609.0 1376.9,640.0" fill="#4a7235" stroke="#1a3010" stroke-width="1.0"/>
  <polygon points="1430.6,795.0 1376.9,826.0 1323.2,795.0 1323.2,733.0 1376.9,702.0 1430.6,733.0" fill="#4a7235" stroke="#1a3010" stroke-width="1.0"/>
  <polygon points="1484.3,888.0 1430.6,919.0 1376.9,888.0 1376.9,826.0 1430.6,795.0 1484.3,826.0" fill="#4a7235" stroke="#1a3010" stroke-width="1.0"/>
  <polygon points="1538.0,981.0 1484.3,1012.0 1430.6,981.0 1430.6,919.0 1484.3,888.0 1538.0,919.0" fill="#4a7235" stroke="#1a3010" stroke-width="1.0"/>
  <polygon points="410.5,1074.0 356.8,1105.0 303.1,1074.0 303.1,1012.0 356.8,981.0 410.5,1012.0" fill="#7a7060" stroke="#1a0e04" stroke-width="2.0"/>
  <polygon points="464.1,1167.0 410.5,1198.0 356.8,1167.0 356.8,1105.0 410.5,1074.0 464.1,1105.0" fill="#7a7060" stroke="#1a0e04" stroke-width="2.0"/>
  <polygon points="517.8,1260.0 464.1,1291.0 410.5,1260.0 410.5,1198.0 464.1,1167.0 517.8,1198.0" fill="#7a7060" stroke="#1a0e04" stroke-width="2.0"/>
  <polygon points="571.5,1353.0 517.8,1384.0 464.1,1353.0 464.1,1291.0 517.8,1260.0 571.5,1291.0" fill="#7a7060" stroke="#1a0e04" stroke-width="2.0"/>
  <polygon points="410.5,888.0 356.8,919.0 303.1,888.0 303.1,826.0 356.8,795.0 410.5,826.0" fill="#7a7060" stroke="#1a0e04" stroke-width="2.0"/>
  <polygon points="732.6,1446.0 678.9,1477.0 625.2,1446.0 625.2,1384.0 678.9,1353.0 732.6,1384.0" fill="#7a7060" stroke="#1a0e04" stroke-width="2.0"/>
  <polygon points="464.1,795.0 410.5,826.0 356.8,795.0 356.8,733.0 410.5,702.0 464.1,733.0" fill="#7a7060" stroke="#1a0e04" stroke-width="2.0"/>
  <polygon points="840.0,1446.0 786.3,1477.0 732.6,1446.0 732.6,1384.0 786.3,1353.0 840.0,1384.0" fill="#7a7060" stroke="#1a0e04" stroke-width="2.0"/>
  <polygon points="517.8,702.0 464.1,733.0 410.5,702.0 410.5,640.0 464.1,609.0 517.8,640.0" fill="#7a7060" stroke="#1a0e04" stroke-width="2.0"/>
  <polygon points="947.4,1446.0 893.7,1477.0 840.0,1446.0 840.0,1384.0 893.7,1353.0 947.4,1384.0" fill="#7a7060" stroke="#1a0e04" stroke-width="2.0"/>
  <polygon points="571.5,609.0 517.8,640.0 464.1,609.0 464.1,547.0 517.8,516.0 571.5,547.0" fill="#7a7060" stroke="#1a0e04" stroke-width="2.0"/>
  <polygon points="732.6,516.0 678.9,547.0 625.2,516.0 625.2,454.0 678.9,423.0 732.6,454.0" fill="#7a7060" stroke="#1a0e04" stroke-width="2.0"/>
  <polygon points="1215.9,1353.0 1162.2,1384.0 1108.5,1353.0 1108.5,1291.0 1162.2,1260.0 1215.9,1291.0" fill="#7a7060" stroke="#1a0e04" stroke-width="2.0"/>
  <polygon points="840.0,516.0 786.3,547.0 732.6,516.0 732.6,454.0 786.3,423.0 840.0,454.0" fill="#7a7060" stroke="#1a0e04" stroke-width="2.0"/>
  <polygon points="1269.5,1260.0 1215.9,1291.0 1162.2,1260.0 1162.2,1198.0 1215.9,1167.0 1269.5,1198.0" fill="#7a7060" stroke="#1a0e04" stroke-width="2.0"/>
  <polygon points="947.4,516.0 893.7,547.0 840.0,516.0 840.0,454.0 893.7,423.0 947.4,454.0" fill="#7a7060" stroke="#1a0e04" stroke-width="2.0"/>
  <polygon points="1323.2,1167.0 1269.5,1198.0 1215.9,1167.0 1215.9,1105.0 1269.5,1074.0 1323.2,1105.0" fill="#7a7060" stroke="#1a0e04" stroke-width="2.0"/>
  <polygon points="1054.8,516.0 1001.1,547.0 947.4,516.0 947.4,454.0 1001.1,423.0 1054.8,454.0" fill="#7a7060" stroke="#1a0e04" stroke-width="2.0"/>
  <polygon points="1376.9,1074.0 1323.2,1105.0 1269.5,1074.0 1269.5,1012.0 1323.2,981.0 1376.9,1012.0" fill="#7a7060" stroke="#1a0e04" stroke-width="2.0"/>
  <polygon points="1215.9,609.0 1162.2,640.0 1108.5,609.0 1108.5,547.0 1162.2,516.0 1215.9,547.0" fill="#7a7060" stroke="#1a0e04" stroke-width="2.0"/>
  <polygon points="1269.5,702.0 1215.9,733.0 1162.2,702.0 1162.2,640.0 1215.9,609.0 1269.5,640.0" fill="#7a7060" stroke="#1a0e04" stroke-width="2.0"/>
  <polygon points="1323.2,795.0 1269.5,826.0 1215.9,795.0 1215.9,733.0 1269.5,702.0 1323.2,733.0" fill="#7a7060" stroke="#1a0e04" stroke-width="2.0"/>
  <polygon points="1376.9,888.0 1323.2,919.0 1269.5,888.0 1269.5,826.0 1323.2,795.0 1376.9,826.0" fill="#7a7060" stroke="#1a0e04" stroke-width="2.0"/>
  <polygon points="356.8,981.0 303.1,1012.0 249.4,981.0 249.4,919.0 303.1,888.0 356.8,919.0" fill="#504838" stroke="#1a0e04" stroke-width="2.0"/>
  <polygon points="334.2,968.0 303.1,986.0 271.9,968.0 271.9,932.0 303.1,914.0 334.2,932.0" fill="none" stroke="#302820" stroke-width="1.5" stroke-dasharray="4,2"/>
  <polygon points="625.2,1446.0 571.5,1477.0 517.8,1446.0 517.8,1384.0 571.5,1353.0 625.2,1384.0" fill="#504838" stroke="#1a0e04" stroke-width="2.0"/>
  <polygon points="602.7,1433.0 571.5,1451.0 540.4,1433.0 540.4,1397.0 571.5,1379.0 602.7,1397.0" fill="none" stroke="#302820" stroke-width="1.5" stroke-dasharray="4,2"/>
  <polygon points="625.2,516.0 571.5,547.0 517.8,516.0 517.8,454.0 571.5,423.0 625.2,454.0" fill="#504838" stroke="#1a0e04" stroke-width="2.0"/>
  <polygon points="602.7,503.0 571.5,521.0 540.4,503.0 540.4,467.0 571.5,449.0 602.7,467.0" fill="none" stroke="#302820" stroke-width="1.5" stroke-dasharray="4,2"/>
  <polygon points="1162.2,1446.0 1108.5,1477.0 1054.8,1446.0 1054.8,1384.0 1108.5,1353.0 1162.2,1384.0" fill="#504838" stroke="#1a0e04" stroke-width="2.0"/>
  <polygon points="1139.6,1433.0 1108.5,1451.0 1077.3,1433.0 1077.3,1397.0 1108.5,1379.0 1139.6,1397.0" fill="none" stroke="#302820" stroke-width="1.5" stroke-dasharray="4,2"/>
  <polygon points="1162.2,516.0 1108.5,547.0 1054.8,516.0 1054.8,454.0 1108.5,423.0 1162.2,454.0" fill="#504838" stroke="#1a0e04" stroke-width="2.0"/>
  <polygon points="1139.6,503.0 1108.5,521.0 1077.3,503.0 1077.3,467.0 1108.5,449.0 1139.6,467.0" fill="none" stroke="#302820" stroke-width="1.5" stroke-dasharray="4,2"/>
  <polygon points="1430.6,981.0 1376.9,1012.0 1323.2,981.0 1323.2,919.0 1376.9,888.0 1430.6,919.0" fill="#504838" stroke="#1a0e04" stroke-width="2.0"/>
  <polygon points="1408.1,968.0 1376.9,986.0 1345.8,968.0 1345.8,932.0 1376.9,914.0 1408.1,932.0" fill="none" stroke="#302820" stroke-width="1.5" stroke-dasharray="4,2"/>
  <polygon points="1054.8,1446.0 1001.1,1477.0 947.4,1446.0 947.4,1384.0 1001.1,1353.0 1054.8,1384.0" fill="#a09060" stroke="#1a0e04" stroke-width="1.0"/>
  <text x="1001.1" y="1419.0" text-anchor="middle" font-family="Georgia,serif" font-size="8" fill="#3a2808">S.Gate</text>
  <polygon points="464.1,981.0 410.5,1012.0 356.8,981.0 356.8,919.0 410.5,888.0 464.1,919.0" fill="#c8b888" stroke="#1a0e04" stroke-width="1.0"/>
  <polygon points="517.8,1074.0 464.1,1105.0 410.5,1074.0 410.5,1012.0 464.1,981.0 517.8,1012.0" fill="#c8b888" stroke="#1a0e04" stroke-width="1.0"/>
  <polygon points="571.5,1167.0 517.8,1198.0 464.1,1167.0 464.1,1105.0 517.8,1074.0 571.5,1105.0" fill="#c8b888" stroke="#1a0e04" stroke-width="1.0"/>
  <polygon points="625.2,1260.0 571.5,1291.0 517.8,1260.0 517.8,1198.0 571.5,1167.0 625.2,1198.0" fill="#c8b888" stroke="#1a0e04" stroke-width="1.0"/>
  <polygon points="678.9,1353.0 625.2,1384.0 571.5,1353.0 571.5,1291.0 625.2,1260.0 678.9,1291.0" fill="#c8b888" stroke="#1a0e04" stroke-width="1.0"/>
  <polygon points="517.8,888.0 464.1,919.0 410.5,888.0 410.5,826.0 464.1,795.0 517.8,826.0" fill="#c8b888" stroke="#1a0e04" stroke-width="1.0"/>
  <polygon points="571.5,981.0 517.8,1012.0 464.1,981.0 464.1,919.0 517.8,888.0 571.5,919.0" fill="#c8b888" stroke="#1a0e04" stroke-width="1.0"/>
  <polygon points="625.2,1074.0 571.5,1105.0 517.8,1074.0 517.8,1012.0 571.5,981.0 625.2,1012.0" fill="#c87830" stroke="#1a0e04" stroke-width="1.0"/>
  <polygon points="678.9,1167.0 625.2,1198.0 571.5,1167.0 571.5,1105.0 625.2,1074.0 678.9,1105.0" fill="#a03020" stroke="#1a0e04" stroke-width="1.0"/>
  <polygon points="732.6,1260.0 678.9,1291.0 625.2,1260.0 625.2,1198.0 678.9,1167.0 732.6,1198.0" fill="#c8b888" stroke="#1a0e04" stroke-width="1.0"/>
  <polygon points="786.3,1353.0 732.6,1384.0 678.9,1353.0 678.9,1291.0 732.6,1260.0 786.3,1291.0" fill="#c8b888" stroke="#1a0e04" stroke-width="1.0"/>
  <polygon points="571.5,795.0 517.8,826.0 464.1,795.0 464.1,733.0 517.8,702.0 571.5,733.0" fill="#c8b888" stroke="#1a0e04" stroke-width="1.0"/>
  <polygon points="625.2,888.0 571.5,919.0 517.8,888.0 517.8,826.0 571.5,795.0 625.2,826.0" fill="#308040" stroke="#1a0e04" stroke-width="1.0"/>
  <polygon points="678.9,981.0 625.2,1012.0 571.5,981.0 571.5,919.0 625.2,888.0 678.9,919.0" fill="#c8b888" stroke="#1a0e04" stroke-width="1.0"/>
  <polygon points="732.6,1074.0 678.9,1105.0 625.2,1074.0 625.2,1012.0 678.9,981.0 732.6,1012.0" fill="#c8b888" stroke="#1a0e04" stroke-width="1.0"/>
  <polygon points="786.3,1167.0 732.6,1198.0 678.9,1167.0 678.9,1105.0 732.6,1074.0 786.3,1105.0" fill="#c8b888" stroke="#1a0e04" stroke-width="1.0"/>
  <polygon points="840.0,1260.0 786.3,1291.0 732.6,1260.0 732.6,1198.0 786.3,1167.0 840.0,1198.0" fill="#c8b888" stroke="#1a0e04" stroke-width="1.0"/>
  <polygon points="893.7,1353.0 840.0,1384.0 786.3,1353.0 786.3,1291.0 840.0,1260.0 893.7,1291.0" fill="#b08840" stroke="#1a0e04" stroke-width="1.0"/>
  <polygon points="625.2,702.0 571.5,733.0 517.8,702.0 517.8,640.0 571.5,609.0 625.2,640.0" fill="#c8b888" stroke="#1a0e04" stroke-width="1.0"/>
  <polygon points="678.9,795.0 625.2,826.0 571.5,795.0 571.5,733.0 625.2,702.0 678.9,733.0" fill="#78a028" stroke="#1a0e04" stroke-width="1.0"/>
  <polygon points="732.6,888.0 678.9,919.0 625.2,888.0 625.2,826.0 678.9,795.0 732.6,826.0" fill="#586878" stroke="#1a0e04" stroke-width="1.0"/>
  <polygon points="786.3,981.0 732.6,1012.0 678.9,981.0 678.9,919.0 732.6,888.0 786.3,919.0" fill="#c8b888" stroke="#1a0e04" stroke-width="1.0"/>
  <polygon points="840.0,1074.0 786.3,1105.0 732.6,1074.0 732.6,1012.0 786.3,981.0 840.0,1012.0" fill="#c8b888" stroke="#1a0e04" stroke-width="1.0"/>
  <polygon points="893.7,1167.0 840.0,1198.0 786.3,1167.0 786.3,1105.0 840.0,1074.0 893.7,1105.0" fill="#c8b888" stroke="#1a0e04" stroke-width="1.0"/>
  <polygon points="947.4,1260.0 893.7,1291.0 840.0,1260.0 840.0,1198.0 893.7,1167.0 947.4,1198.0" fill="#a03020" stroke="#1a0e04" stroke-width="1.0"/>
  <polygon points="1001.1,1353.0 947.4,1384.0 893.7,1353.0 893.7,1291.0 947.4,1260.0 1001.1,1291.0" fill="#c8b888" stroke="#1a0e04" stroke-width="1.0"/>
  <polygon points="678.9,609.0 625.2,640.0 571.5,609.0 571.5,547.0 625.2,516.0 678.9,547.0" fill="#c8b888" stroke="#1a0e04" stroke-width="1.0"/>
  <polygon points="732.6,702.0 678.9,733.0 625.2,702.0 625.2,640.0 678.9,609.0 732.6,640.0" fill="#c8b888" stroke="#1a0e04" stroke-width="1.0"/>
  <polygon points="786.3,795.0 732.6,826.0 678.9,795.0 678.9,733.0 732.6,702.0 786.3,733.0" fill="#c0a018" stroke="#1a0e04" stroke-width="1.0"/>
  <polygon points="840.0,888.0 786.3,919.0 732.6,888.0 732.6,826.0 786.3,795.0 840.0,826.0" fill="#586878" stroke="#1a0e04" stroke-width="1.0"/>
  <polygon points="893.7,981.0 840.0,1012.0 786.3,981.0 786.3,919.0 840.0,888.0 893.7,919.0" fill="#c8b060" stroke="#1a0e04" stroke-width="1.0"/>
  <polygon points="947.4,1074.0 893.7,1105.0 840.0,1074.0 840.0,1012.0 893.7,981.0 947.4,1012.0" fill="#c8b888" stroke="#1a0e04" stroke-width="1.0"/>
  <polygon points="1001.1,1167.0 947.4,1198.0 893.7,1167.0 893.7,1105.0 947.4,1074.0 1001.1,1105.0" fill="#c8b888" stroke="#1a0e04" stroke-width="1.0"/>
  <polygon points="1054.8,1260.0 1001.1,1291.0 947.4,1260.0 947.4,1198.0 1001.1,1167.0 1054.8,1198.0" fill="#c8b888" stroke="#1a0e04" stroke-width="1.0"/>
  <polygon points="1108.5,1353.0 1054.8,1384.0 1001.1,1353.0 1001.1,1291.0 1054.8,1260.0 1108.5,1291.0" fill="#285888" stroke="#1a0e04" stroke-width="1.0"/>
  <polygon points="786.3,609.0 732.6,640.0 678.9,609.0 678.9,547.0 732.6,516.0 786.3,547.0" fill="#c8b888" stroke="#1a0e04" stroke-width="1.0"/>
  <polygon points="840.0,702.0 786.3,733.0 732.6,702.0 732.6,640.0 786.3,609.0 840.0,640.0" fill="#385068" stroke="#1a0e04" stroke-width="1.0"/>
  <polygon points="893.7,795.0 840.0,826.0 786.3,795.0 786.3,733.0 840.0,702.0 893.7,733.0" fill="#c8b888" stroke="#1a0e04" stroke-width="1.0"/>
  <polygon points="947.4,888.0 893.7,919.0 840.0,888.0 840.0,826.0 893.7,795.0 947.4,826.0" fill="#c8b888" stroke="#1a0e04" stroke-width="1.0"/>
  <polygon points="1001.1,981.0 947.4,1012.0 893.7,981.0 893.7,919.0 947.4,888.0 1001.1,919.0" fill="#907860" stroke="#1a0e04" stroke-width="1.0"/>
  <polygon points="1054.8,1074.0 1001.1,1105.0 947.4,1074.0 947.4,1012.0 1001.1,981.0 1054.8,1012.0" fill="#7040a0" stroke="#1a0e04" stroke-width="1.0"/>
  <polygon points="1108.5,1167.0 1054.8,1198.0 1001.1,1167.0 1001.1,1105.0 1054.8,1074.0 1108.5,1105.0" fill="#c8b888" stroke="#1a0e04" stroke-width="1.0"/>
  <polygon points="1162.2,1260.0 1108.5,1291.0 1054.8,1260.0 1054.8,1198.0 1108.5,1167.0 1162.2,1198.0" fill="#c8b888" stroke="#1a0e04" stroke-width="1.0"/>
  <polygon points="893.7,609.0 840.0,640.0 786.3,609.0 786.3,547.0 840.0,516.0 893.7,547.0" fill="#3870a8" stroke="#1a0e04" stroke-width="1.0"/>
  <polygon points="947.4,702.0 893.7,733.0 840.0,702.0 840.0,640.0 893.7,609.0 947.4,640.0" fill="#c8b888" stroke="#1a0e04" stroke-width="1.0"/>
  <polygon points="1001.1,795.0 947.4,826.0 893.7,795.0 893.7,733.0 947.4,702.0 1001.1,733.0" fill="#c8b888" stroke="#1a0e04" stroke-width="1.0"/>
  <polygon points="1054.8,888.0 1001.1,919.0 947.4,888.0 947.4,826.0 1001.1,795.0 1054.8,826.0" fill="#c8b888" stroke="#1a0e04" stroke-width="1.0"/>
  <polygon points="1108.5,981.0 1054.8,1012.0 1001.1,981.0 1001.1,919.0 1054.8,888.0 1108.5,919.0" fill="#c8b888" stroke="#1a0e04" stroke-width="1.0"/>
  <polygon points="1162.2,1074.0 1108.5,1105.0 1054.8,1074.0 1054.8,1012.0 1108.5,981.0 1162.2,1012.0" fill="#c8b888" stroke="#1a0e04" stroke-width="1.0"/>
  <polygon points="1215.9,1167.0 1162.2,1198.0 1108.5,1167.0 1108.5,1105.0 1162.2,1074.0 1215.9,1105.0" fill="#c8b888" stroke="#1a0e04" stroke-width="1.0"/>
  <polygon points="1001.1,609.0 947.4,640.0 893.7,609.0 893.7,547.0 947.4,516.0 1001.1,547.0" fill="#c8b888" stroke="#1a0e04" stroke-width="1.0"/>
  <polygon points="1054.8,702.0 1001.1,733.0 947.4,702.0 947.4,640.0 1001.1,609.0 1054.8,640.0" fill="#c8b888" stroke="#1a0e04" stroke-width="1.0"/>
  <polygon points="1108.5,795.0 1054.8,826.0 1001.1,795.0 1001.1,733.0 1054.8,702.0 1108.5,733.0" fill="#c8b888" stroke="#1a0e04" stroke-width="1.0"/>
  <polygon points="1162.2,888.0 1108.5,919.0 1054.8,888.0 1054.8,826.0 1108.5,795.0 1162.2,826.0" fill="#c8b888" stroke="#1a0e04" stroke-width="1.0"/>
  <polygon points="1215.9,981.0 1162.2,1012.0 1108.5,981.0 1108.5,919.0 1162.2,888.0 1215.9,919.0" fill="#c8b888" stroke="#1a0e04" stroke-width="1.0"/>
  <polygon points="1269.5,1074.0 1215.9,1105.0 1162.2,1074.0 1162.2,1012.0 1215.9,981.0 1269.5,1012.0" fill="#884040" stroke="#1a0e04" stroke-width="1.0"/>
  <polygon points="1108.5,609.0 1054.8,640.0 1001.1,609.0 1001.1,547.0 1054.8,516.0 1108.5,547.0" fill="#c8b888" stroke="#1a0e04" stroke-width="1.0"/>
  <polygon points="1162.2,702.0 1108.5,733.0 1054.8,702.0 1054.8,640.0 1108.5,609.0 1162.2,640.0" fill="#c8b888" stroke="#1a0e04" stroke-width="1.0"/>
  <polygon points="1215.9,795.0 1162.2,826.0 1108.5,795.0 1108.5,733.0 1162.2,702.0 1215.9,733.0" fill="#c8b888" stroke="#1a0e04" stroke-width="1.0"/>
  <polygon points="1269.5,888.0 1215.9,919.0 1162.2,888.0 1162.2,826.0 1215.9,795.0 1269.5,826.0" fill="#c8b888" stroke="#1a0e04" stroke-width="1.0"/>
  <polygon points="1323.2,981.0 1269.5,1012.0 1215.9,981.0 1215.9,919.0 1269.5,888.0 1323.2,919.0" fill="#c8b888" stroke="#1a0e04" stroke-width="1.0"/>
  <text x="840.0" y="948.0" text-anchor="middle" font-family="Georgia,serif" font-size="9.5" font-weight="bold" stroke="white" stroke-width="2.5" paint-order="stroke" fill="#1a0800">Ring</text>
  <text x="840.0" y="960.0" text-anchor="middle" font-family="Georgia,serif" font-size="9.5" font-weight="bold" stroke="white" stroke-width="2.5" paint-order="stroke" fill="#1a0800">Square</text>
  <text x="1054.8" y="1320.0" text-anchor="middle" font-family="Georgia,serif" font-size="9.5" font-weight="bold" stroke="white" stroke-width="2.5" paint-order="stroke" fill="#1a0800">Elnara's</text>
  <text x="1054.8" y="1332.0" text-anchor="middle" font-family="Georgia,serif" font-size="9.5" font-weight="bold" stroke="white" stroke-width="2.5" paint-order="stroke" fill="#1a0800">Post</text>
  <text x="571.5" y="1041.0" text-anchor="middle" font-family="Georgia,serif" font-size="9.5" font-weight="bold" stroke="white" stroke-width="2.5" paint-order="stroke" fill="#1a0800">Plume's</text>
  <text x="571.5" y="1053.0" text-anchor="middle" font-family="Georgia,serif" font-size="9.5" font-weight="bold" stroke="white" stroke-width="2.5" paint-order="stroke" fill="#1a0800">Rest</text>
  <text x="625.2" y="1134.0" text-anchor="middle" font-family="Georgia,serif" font-size="9.5" font-weight="bold" stroke="white" stroke-width="2.5" paint-order="stroke" fill="#1a0800">Scalded</text>
  <text x="625.2" y="1146.0" text-anchor="middle" font-family="Georgia,serif" font-size="9.5" font-weight="bold" stroke="white" stroke-width="2.5" paint-order="stroke" fill="#1a0800">Goblin</text>
  <text x="893.7" y="1227.0" text-anchor="middle" font-family="Georgia,serif" font-size="9.5" font-weight="bold" stroke="white" stroke-width="2.5" paint-order="stroke" fill="#1a0800">Black</text>
  <text x="893.7" y="1239.0" text-anchor="middle" font-family="Georgia,serif" font-size="9.5" font-weight="bold" stroke="white" stroke-width="2.5" paint-order="stroke" fill="#1a0800">Feather</text>
  <text x="1001.1" y="1041.0" text-anchor="middle" font-family="Georgia,serif" font-size="9.5" font-weight="bold" stroke="white" stroke-width="2.5" paint-order="stroke" fill="#1a0800">Thingiz-</text>
  <text x="1001.1" y="1053.0" text-anchor="middle" font-family="Georgia,serif" font-size="9.5" font-weight="bold" stroke="white" stroke-width="2.5" paint-order="stroke" fill="#1a0800">zard's</text>
  <text x="678.9" y="855.0" text-anchor="middle" font-family="Georgia,serif" font-size="9.5" font-weight="bold" stroke="white" stroke-width="2.5" paint-order="stroke" fill="#1a0800">Hammer &amp;</text>
  <text x="678.9" y="867.0" text-anchor="middle" font-family="Georgia,serif" font-size="9.5" font-weight="bold" stroke="white" stroke-width="2.5" paint-order="stroke" fill="#1a0800">Thorn</text>
  <text x="786.3" y="855.0" text-anchor="middle" font-family="Georgia,serif" font-size="9.5" font-weight="bold" stroke="white" stroke-width="2.5" paint-order="stroke" fill="#1a0800">Anvil</text>
  <text x="786.3" y="867.0" text-anchor="middle" font-family="Georgia,serif" font-size="9.5" font-weight="bold" stroke="white" stroke-width="2.5" paint-order="stroke" fill="#1a0800">Ring</text>
  <text x="1215.9" y="1041.0" text-anchor="middle" font-family="Georgia,serif" font-size="9.5" font-weight="bold" stroke="white" stroke-width="2.5" paint-order="stroke" fill="#1a0800">White Plume</text>
  <text x="1215.9" y="1053.0" text-anchor="middle" font-family="Georgia,serif" font-size="9.5" font-weight="bold" stroke="white" stroke-width="2.5" paint-order="stroke" fill="#1a0800">Armory</text>
  <text x="840.0" y="1320.0" text-anchor="middle" font-family="Georgia,serif" font-size="9.5" font-weight="bold" stroke="white" stroke-width="2.5" paint-order="stroke" fill="#1a0800">Brindle's</text>
  <text x="840.0" y="1332.0" text-anchor="middle" font-family="Georgia,serif" font-size="9.5" font-weight="bold" stroke="white" stroke-width="2.5" paint-order="stroke" fill="#1a0800">Stable</text>
  <text x="732.6" y="762.0" text-anchor="middle" font-family="Georgia,serif" font-size="9.5" font-weight="bold" stroke="white" stroke-width="2.5" paint-order="stroke" fill="#1a0800">St.</text>
  <text x="732.6" y="774.0" text-anchor="middle" font-family="Georgia,serif" font-size="9.5" font-weight="bold" stroke="white" stroke-width="2.5" paint-order="stroke" fill="#1a0800">Cuthbert</text>
  <text x="786.3" y="669.0" text-anchor="middle" font-family="Georgia,serif" font-size="9.5" font-weight="bold" stroke="white" stroke-width="2.5" paint-order="stroke" fill="#1a0800">Shield</text>
  <text x="786.3" y="681.0" text-anchor="middle" font-family="Georgia,serif" font-size="9.5" font-weight="bold" stroke="white" stroke-width="2.5" paint-order="stroke" fill="#1a0800">Post</text>
  <text x="840.0" y="576.0" text-anchor="middle" font-family="Georgia,serif" font-size="9.5" font-weight="bold" stroke="white" stroke-width="2.5" paint-order="stroke" fill="#1a0800">Town</text>
  <text x="840.0" y="588.0" text-anchor="middle" font-family="Georgia,serif" font-size="9.5" font-weight="bold" stroke="white" stroke-width="2.5" paint-order="stroke" fill="#1a0800">Well</text>
  <text x="625.2" y="762.0" text-anchor="middle" font-family="Georgia,serif" font-size="9.5" font-weight="bold" stroke="white" stroke-width="2.5" paint-order="stroke" fill="#1a0800">Ring</text>
  <text x="625.2" y="774.0" text-anchor="middle" font-family="Georgia,serif" font-size="9.5" font-weight="bold" stroke="white" stroke-width="2.5" paint-order="stroke" fill="#1a0800">Market</text>
  <text x="571.5" y="855.0" text-anchor="middle" font-family="Georgia,serif" font-size="9.5" font-weight="bold" stroke="white" stroke-width="2.5" paint-order="stroke" fill="#1a0800">Moss &amp;</text>
  <text x="571.5" y="867.0" text-anchor="middle" font-family="Georgia,serif" font-size="9.5" font-weight="bold" stroke="white" stroke-width="2.5" paint-order="stroke" fill="#1a0800">Root</text>
  <text x="947.4" y="948.0" text-anchor="middle" font-family="Georgia,serif" font-size="9.5" font-weight="bold" stroke="white" stroke-width="2.5" paint-order="stroke" fill="#1a0800">Chandler's</text>
  <text x="947.4" y="960.0" text-anchor="middle" font-family="Georgia,serif" font-size="9.5" font-weight="bold" stroke="white" stroke-width="2.5" paint-order="stroke" fill="#1a0800">Whs.</text>
  <text x="1055" y="1517" text-anchor="middle" font-family="Georgia,serif" font-size="18" font-style="italic" fill="#5a3818">↓ Road to Critwall</text>
  <text x="572" y="403" text-anchor="middle" font-family="Georgia,serif" font-size="18" font-style="italic" fill="#5a3818">↑ The Twisted Thicket</text>
  <rect x="1708" y="188" width="624" height="660" fill="#ede0b5" stroke="#7a5a20" stroke-width="2" rx="5"/>
  <text x="2020" y="220" text-anchor="middle" font-family="Georgia,serif" font-size="22" font-weight="bold" fill="#2a1508">MAP KEY</text>
  <rect x="1720" y="242" width="24" height="18" fill="#7a7060" stroke="#2a1508" stroke-width="1"/>
  <text x="1754" y="256" font-family="Georgia,serif" font-size="16" fill="#2a1508">Stone Wall</text>
  <rect x="1720" y="272" width="24" height="18" fill="#504838" stroke="#2a1508" stroke-width="1"/>
  <text x="1754" y="286" font-family="Georgia,serif" font-size="16" fill="#2a1508">Wall Tower</text>
  <rect x="1720" y="302" width="24" height="18" fill="#a09060" stroke="#2a1508" stroke-width="1"/>
  <text x="1754" y="316" font-family="Georgia,serif" font-size="16" fill="#2a1508">Town Gate</text>
  <rect x="1720" y="332" width="24" height="18" fill="#c8b888" stroke="#2a1508" stroke-width="1"/>
  <text x="1754" y="346" font-family="Georgia,serif" font-size="16" fill="#2a1508">Street / Open Ground</text>
  <rect x="1720" y="362" width="24" height="18" fill="#c8b060" stroke="#2a1508" stroke-width="1"/>
  <text x="1754" y="376" font-family="Georgia,serif" font-size="16" fill="#2a1508">Ring Square</text>
  <rect x="1720" y="392" width="24" height="18" fill="#285888" stroke="#2a1508" stroke-width="1"/>
  <text x="1754" y="406" font-family="Georgia,serif" font-size="16" fill="#2a1508">Elnara's Post</text>
  <rect x="1720" y="422" width="24" height="18" fill="#c87830" stroke="#2a1508" stroke-width="1"/>
  <text x="1754" y="436" font-family="Georgia,serif" font-size="16" fill="#2a1508">The Plume's Rest</text>
  <rect x="1720" y="452" width="24" height="18" fill="#a03020" stroke="#2a1508" stroke-width="1"/>
  <text x="1754" y="466" font-family="Georgia,serif" font-size="16" fill="#2a1508">The Scalded Goblin</text>
  <rect x="1720" y="482" width="24" height="18" fill="#a03020" stroke="#2a1508" stroke-width="1"/>
  <text x="1754" y="496" font-family="Georgia,serif" font-size="16" fill="#2a1508">The Black Feather</text>
  <rect x="1720" y="512" width="24" height="18" fill="#7040a0" stroke="#2a1508" stroke-width="1"/>
  <text x="1754" y="526" font-family="Georgia,serif" font-size="16" fill="#2a1508">Thingizzard's Sundries</text>
  <rect x="1720" y="542" width="24" height="18" fill="#586878" stroke="#2a1508" stroke-width="1"/>
  <text x="1754" y="556" font-family="Georgia,serif" font-size="16" fill="#2a1508">Hammer &amp; Thorn Smithy</text>
  <rect x="1720" y="572" width="24" height="18" fill="#586878" stroke="#2a1508" stroke-width="1"/>
  <text x="1754" y="586" font-family="Georgia,serif" font-size="16" fill="#2a1508">The Anvil Ring</text>
  <rect x="1720" y="602" width="24" height="18" fill="#884040" stroke="#2a1508" stroke-width="1"/>
  <text x="1754" y="616" font-family="Georgia,serif" font-size="16" fill="#2a1508">White Plume Armory</text>
  <rect x="1720" y="632" width="24" height="18" fill="#b08840" stroke="#2a1508" stroke-width="1"/>
  <text x="1754" y="646" font-family="Georgia,serif" font-size="16" fill="#2a1508">Brindle's Stable</text>
  <rect x="1720" y="662" width="24" height="18" fill="#c0a018" stroke="#2a1508" stroke-width="1"/>
  <text x="1754" y="676" font-family="Georgia,serif" font-size="16" fill="#2a1508">Shrine of St. Cuthbert</text>
  <rect x="1720" y="692" width="24" height="18" fill="#385068" stroke="#2a1508" stroke-width="1"/>
  <text x="1754" y="706" font-family="Georgia,serif" font-size="16" fill="#2a1508">The Shield Post</text>
  <rect x="1720" y="722" width="24" height="18" fill="#3870a8" stroke="#2a1508" stroke-width="1"/>
  <text x="1754" y="736" font-family="Georgia,serif" font-size="16" fill="#2a1508">The Town Well</text>
  <rect x="1720" y="752" width="24" height="18" fill="#78a028" stroke="#2a1508" stroke-width="1"/>
  <text x="1754" y="766" font-family="Georgia,serif" font-size="16" fill="#2a1508">Ring Square Market</text>
  <rect x="1720" y="782" width="24" height="18" fill="#308040" stroke="#2a1508" stroke-width="1"/>
  <text x="1754" y="796" font-family="Georgia,serif" font-size="16" fill="#2a1508">Moss &amp; Root Herbals</text>
  <rect x="1720" y="812" width="24" height="18" fill="#907860" stroke="#2a1508" stroke-width="1"/>
  <text x="1754" y="826" font-family="Georgia,serif" font-size="16" fill="#2a1508">Chandler's Warehouse</text>
  <polygon points="2245.0,1593.0 2254.0,1640.0 2245.0,1652.0 2236.0,1640.0" fill="#8a1010" stroke="#2a1508" stroke-width="1.5"/>
  <text x="2245.0" y="1575.0" text-anchor="middle" font-family="Georgia,serif" font-size="18" font-weight="bold" fill="#2a1508">N</text>
  <polygon points="2292.0,1640.0 2245.0,1649.0 2233.0,1640.0 2245.0,1631.0" fill="#f4e8c8" stroke="#2a1508" stroke-width="1.5"/>
  <text x="2316.0" y="1646.0" text-anchor="middle" font-family="Georgia,serif" font-size="18" font-weight="bold" fill="#2a1508">E</text>
  <polygon points="2245.0,1687.0 2236.0,1640.0 2245.0,1628.0 2254.0,1640.0" fill="#f4e8c8" stroke="#2a1508" stroke-width="1.5"/>
  <text x="2245.0" y="1717.0" text-anchor="middle" font-family="Georgia,serif" font-size="18" font-weight="bold" fill="#2a1508">S</text>
  <polygon points="2198.0,1640.0 2245.0,1631.0 2257.0,1640.0 2245.0,1649.0" fill="#f4e8c8" stroke="#2a1508" stroke-width="1.5"/>
  <text x="2174.0" y="1646.0" text-anchor="middle" font-family="Georgia,serif" font-size="18" font-weight="bold" fill="#2a1508">W</text>
  <circle cx="2245" cy="1640" r="6" fill="#2a1508"/>
  <text x="2245" y="1563" text-anchor="middle" font-family="Georgia,serif" font-size="13" font-style="italic" fill="#5a3818">White Plume Mtn.</text>
  <text x="1200" y="1772" text-anchor="middle" font-family="Georgia,serif" font-size="14" font-style="italic" fill="#7a5a30">RINGSTOWN  ·  Layout randomised each run  ·  use --seed N for reproducible output</text>
</svg>
